<svg width="165" height="52" viewBox="0 0 165 52" fill="none" xmlns="http://www.w3.org/2000/svg">
<g clip-path="url(#clip0_5_6)">
<path fill-rule="evenodd" clip-rule="evenodd" d="M2.776 35.346C10.664 48.363 26.22 46.864 33.296 39.119C33.336 39.076 33.336 38.813 33.182 38.851C25.862 40.663 19.233 38.648 14.752 34.444C5.106 25.391 6.13 12.3 13.613 4.40099C14.936 3.00299 16.683 1.91299 18.266 0.927988C18.476 0.797988 18.325 0.474988 18.089 0.542988C4.708 4.45599 -5.013 22.494 2.776 35.346Z" fill="#0078A8"/>
<path fill-rule="evenodd" clip-rule="evenodd" d="M29.413 0.00803788C14.386 0.449038 7.88501 14.9 10.94 25.008C10.956 25.063 11.181 25.195 11.225 25.04C13.343 17.687 18.372 12.855 24.192 11.01C36.724 7.03604 47.358 14.487 50.342 25.026C50.869 26.892 50.926 28.973 50.972 30.861C50.978 31.111 51.329 31.14 51.387 30.898C54.747 17.155 44.25 -0.426962 29.413 0.00803788Z" fill="#EF4056"/>
<path fill-rule="evenodd" clip-rule="evenodd" d="M46.173 41.184C53.311 27.726 44.258 14.772 34.125 12.411C34.069 12.398 33.845 12.531 33.955 12.647C39.156 18.187 40.755 25.035 39.417 31.084C36.533 44.111 24.874 49.752 14.408 47.111C12.556 46.644 10.756 45.651 9.125 44.749C8.91 44.629 8.71 44.923 8.885 45.096C18.907 54.926 39.125 54.471 46.173 41.184Z" fill="#FFD530"/>
<path fill-rule="evenodd" clip-rule="evenodd" d="M62.15 14.0989C62.15 11.7979 63.892 9.99194 66.244 9.99194C67.728 9.99194 68.687 10.6049 69.367 11.4779C69.445 11.5779 69.424 11.7249 69.325 11.8029L68.1 12.7679C68.0536 12.8033 67.9953 12.8195 67.9372 12.8132C67.8792 12.8068 67.8258 12.7785 67.788 12.7339C67.375 12.2709 66.887 11.9889 66.221 11.9889C65.135 11.9889 64.369 12.9249 64.369 14.0989C64.369 15.2829 65.135 16.2079 66.221 16.2079C66.952 16.2079 67.413 15.8949 67.837 15.4099C67.874 15.3664 67.926 15.3384 67.9826 15.3314C68.0393 15.3243 68.0965 15.3388 68.143 15.3719L69.4 16.2829C69.505 16.3589 69.53 16.5109 69.45 16.6129C68.733 17.5409 67.765 18.2049 66.153 18.2049C63.935 18.2049 62.15 16.4789 62.15 14.0989ZM75.391 13.9399L72.485 16.9529V17.8429C72.485 17.8887 72.4703 17.9332 72.443 17.9699C72.4246 17.9941 72.4008 18.0136 72.3736 18.0269C72.3463 18.0403 72.3164 18.0471 72.286 18.0469H70.733C70.687 18.0469 70.6425 18.031 70.6069 18.0018C70.5714 17.9726 70.547 17.932 70.538 17.8869C70.5348 17.8728 70.5332 17.8584 70.533 17.8439L70.534 10.5679C70.5343 10.5205 70.5509 10.4746 70.581 10.4379L70.595 10.4219L70.606 10.4119C70.6417 10.3815 70.6871 10.3649 70.734 10.3649H72.286C72.3125 10.3651 72.3386 10.3704 72.363 10.3807C72.3873 10.391 72.4094 10.4061 72.4279 10.4249C72.4464 10.4438 72.461 10.4662 72.4708 10.4907C72.4806 10.5153 72.4854 10.5415 72.485 10.5679V14.5159L75.391 11.5159V10.5679C75.3906 10.5414 75.3955 10.5151 75.4054 10.4905C75.4153 10.4659 75.4299 10.4435 75.4485 10.4246C75.4671 10.4057 75.4893 10.3907 75.5138 10.3804C75.5382 10.3702 75.5645 10.3649 75.591 10.3649H77.143C77.201 10.3649 77.253 10.3889 77.289 10.4289C77.324 10.4667 77.3433 10.5164 77.343 10.5679V17.8439C77.3429 17.8747 77.336 17.905 77.3226 17.9327C77.3093 17.9604 77.29 17.9847 77.266 18.0039C77.231 18.0316 77.1876 18.0464 77.143 18.0459H75.59C75.5793 18.0461 75.5686 18.0454 75.558 18.0439L75.536 18.0399C75.4937 18.0277 75.4566 18.0018 75.4304 17.9664C75.4042 17.931 75.3904 17.888 75.391 17.8439V13.9399ZM84.273 10.5669C84.2734 10.5404 84.2685 10.5141 84.2587 10.4895C84.2488 10.4649 84.2341 10.4425 84.2155 10.4236C84.1969 10.4047 84.1747 10.3897 84.1503 10.3794C84.1258 10.3692 84.0995 10.3639 84.073 10.3639H79.403C79.3624 10.3638 79.3227 10.3762 79.2894 10.3995C79.2561 10.4227 79.2308 10.4557 79.217 10.4939C79.2083 10.5173 79.2039 10.542 79.204 10.5669V17.8439C79.204 17.8919 79.221 17.9359 79.248 17.9709C79.2666 17.9945 79.2903 18.0135 79.3173 18.0265C79.3444 18.0395 79.374 18.0461 79.404 18.0459H82.064C82.632 18.0459 83.241 17.9459 83.741 17.6739C84.383 17.3359 84.86 16.7039 84.86 15.6779C84.86 14.5609 84.372 13.9739 83.741 13.6689C83.141 13.3759 82.421 13.3429 81.878 13.3429H81.156V12.1239H84.073C84.0995 12.1239 84.1258 12.1187 84.1503 12.1084C84.1747 12.0982 84.1969 12.0832 84.2155 12.0643C84.2341 12.0454 84.2488 12.023 84.2587 11.9984C84.2685 11.9738 84.2734 11.9475 84.273 11.9209V10.5669ZM91.291 13.9399L88.385 16.9529V17.8429C88.3854 17.8854 88.3729 17.9269 88.349 17.9619C88.3311 17.988 88.3071 18.0093 88.279 18.0239C88.2504 18.0392 88.2184 18.0471 88.186 18.0469H86.633C86.6066 18.0468 86.5805 18.0414 86.5562 18.0311C86.532 18.0208 86.5099 18.0058 86.4915 17.9869C86.4731 17.968 86.4586 17.9456 86.4489 17.9211C86.4392 17.8966 86.4345 17.8703 86.435 17.8439V10.5679C86.4347 10.5139 86.4555 10.4619 86.493 10.4229C86.5114 10.4045 86.5332 10.3899 86.5572 10.3799C86.5812 10.37 86.607 10.3649 86.633 10.3649H88.186C88.2125 10.3649 88.2388 10.3702 88.2633 10.3804C88.2877 10.3907 88.3099 10.4057 88.3285 10.4246C88.3471 10.4435 88.3618 10.4659 88.3717 10.4905C88.3815 10.5151 88.3864 10.5414 88.386 10.5679V14.5159L91.291 11.5159V10.5679C91.2906 10.5414 91.2955 10.5151 91.3054 10.4905C91.3152 10.4659 91.3299 10.4435 91.3485 10.4246C91.3671 10.4057 91.3893 10.3907 91.4138 10.3804C91.4383 10.3702 91.4645 10.3649 91.491 10.3649H93.043C93.0695 10.3649 93.0958 10.3702 93.1203 10.3804C93.1447 10.3907 93.1669 10.4057 93.1855 10.4246C93.2041 10.4435 93.2188 10.4659 93.2287 10.4905C93.2385 10.5151 93.2434 10.5414 93.243 10.5679V17.8439C93.2434 17.8705 93.2385 17.8968 93.2287 17.9214C93.2188 17.946 93.2041 17.9684 93.1855 17.9873C93.1669 18.0062 93.1447 18.0212 93.1203 18.0314C93.0958 18.0417 93.0695 18.0469 93.043 18.0469H91.49C91.4636 18.0468 91.4374 18.0414 91.4131 18.0311C91.3887 18.0209 91.3667 18.0058 91.3482 17.987C91.3297 17.9681 91.3151 17.9457 91.3053 17.9212C91.2955 17.8966 91.2906 17.8704 91.291 17.8439V13.9399ZM100.373 10.9619C99.819 10.4879 99.152 10.3639 98.533 10.3639H95.303C95.2766 10.3641 95.2504 10.3694 95.2261 10.3797C95.2018 10.39 95.1797 10.4051 95.1612 10.4239C95.1427 10.4428 95.1281 10.4652 95.1183 10.4897C95.1085 10.5143 95.1036 10.5405 95.104 10.5669V17.8439C95.1039 17.8813 95.1139 17.9179 95.133 17.9499L95.148 17.9709C95.1668 17.9943 95.1905 18.0132 95.2175 18.0262C95.2445 18.0392 95.2741 18.0459 95.304 18.0459H96.856C96.8825 18.0459 96.9086 18.0407 96.933 18.0305C96.9574 18.0204 96.9796 18.0054 96.9982 17.9867C97.0168 17.9679 97.0314 17.9456 97.0414 17.9211C97.0513 17.8966 97.0563 17.8704 97.056 17.8439V15.8929H98.586C99.174 15.8929 99.762 15.7789 100.295 15.3509C100.915 14.8659 101.315 14.0759 101.315 13.1279C101.315 12.2149 100.949 11.4479 100.373 10.9619ZM102.323 14.0989C102.323 11.7979 104.064 9.99194 106.415 9.99194C107.899 9.99194 108.859 10.6049 109.539 11.4779C109.568 11.5146 109.584 11.5594 109.586 11.6059C109.588 11.6436 109.581 11.6813 109.565 11.7156C109.55 11.7499 109.526 11.7799 109.496 11.8029L108.273 12.7679C108.227 12.8035 108.168 12.8199 108.11 12.8135C108.052 12.8072 107.999 12.7787 107.961 12.7339C107.547 12.2709 107.059 11.9889 106.393 11.9889C105.306 11.9889 104.541 12.9249 104.541 14.0989C104.541 15.2829 105.306 16.2079 106.393 16.2079C107.124 16.2079 107.584 15.8949 108.009 15.4099C108.046 15.3664 108.098 15.3384 108.155 15.3314C108.211 15.3243 108.269 15.3388 108.315 15.3719L109.572 16.2829C109.597 16.3011 109.619 16.3241 109.635 16.3506C109.651 16.3771 109.662 16.4066 109.667 16.4374C109.671 16.4682 109.67 16.4995 109.662 16.5297C109.654 16.5598 109.641 16.5881 109.622 16.6129C108.905 17.5409 107.936 18.2049 106.326 18.2049C104.108 18.2049 102.322 16.4789 102.323 14.0989ZM119.6 18.0469C119.778 18.0469 119.888 17.9789 119.933 17.8209L120.276 16.6589H122.595L122.928 17.8209C122.971 17.9789 123.083 18.0469 123.26 18.0469H124.835C124.968 18.0469 125.012 17.9789 125.012 17.8889C125.012 17.8647 125.009 17.8405 125.003 17.8169L124.99 17.7649L122.607 10.5339C122.562 10.3869 122.462 10.3309 122.295 10.3309H120.654C120.488 10.3309 120.388 10.3869 120.344 10.5339L117.914 17.7639L117.909 17.7859C117.904 17.8069 117.899 17.8259 117.896 17.8459L117.894 17.8639L117.893 17.8889C117.893 17.9789 117.936 18.0469 118.07 18.0469H119.6ZM125.92 12.9369C125.92 12.1239 126.231 11.3679 126.797 10.9169C127.295 10.5229 127.994 10.3639 128.737 10.3639H132.097C132.124 10.3639 132.15 10.3692 132.174 10.3794C132.199 10.3897 132.221 10.4047 132.24 10.4236C132.258 10.4425 132.273 10.4649 132.283 10.4895C132.293 10.5141 132.297 10.5404 132.297 10.5669V17.8439C132.297 17.8574 132.296 17.8708 132.293 17.8839L132.288 17.9039C132.276 17.9449 132.25 17.9809 132.216 18.0064C132.182 18.032 132.14 18.0459 132.097 18.0459H130.544C130.518 18.0458 130.492 18.0405 130.467 18.0302C130.443 18.02 130.421 18.0051 130.403 17.9863C130.384 17.9675 130.369 17.9453 130.36 17.9209C130.35 17.8964 130.345 17.8703 130.345 17.8439V15.5419H129.158L127.972 17.8439C127.883 18.0129 127.771 18.0459 127.596 18.0459H125.886C125.776 18.0459 125.709 17.9909 125.709 17.8899C125.712 17.8355 125.726 17.7824 125.751 17.7339L125.776 17.6849L127.207 15.1589C127.043 15.0679 126.891 14.9582 126.752 14.8319C126.152 14.2899 125.92 13.6139 125.92 12.9369ZM62.438 29.5739C62.4376 29.6005 62.4425 29.6268 62.4524 29.6514C62.4623 29.676 62.4769 29.6984 62.4955 29.7173C62.5141 29.7362 62.5363 29.7512 62.5608 29.7614C62.5852 29.7717 62.6115 29.7769 62.638 29.7769H64.191C64.2289 29.7771 64.266 29.7664 64.298 29.746C64.3299 29.7256 64.3553 29.6964 64.371 29.6619L64.379 29.6439L64.386 29.6199C64.3894 29.6048 64.391 29.5894 64.391 29.5739V23.8549H67.307C67.3402 23.8552 67.3729 23.8471 67.4021 23.8314C67.4313 23.8156 67.456 23.7928 67.474 23.7649L67.484 23.7479L67.493 23.7279L67.501 23.7029L67.505 23.6779L67.507 23.6509V22.2979C67.5067 22.2631 67.4982 22.2288 67.482 22.1979L67.469 22.1779L67.457 22.1639L67.445 22.1509L67.439 22.1449L67.426 22.1349C67.3915 22.1096 67.3499 22.0956 67.307 22.0949H62.638C62.6116 22.0951 62.5854 22.1004 62.5611 22.1107C62.5367 22.121 62.5147 22.1361 62.4962 22.1549C62.4777 22.1738 62.4631 22.1962 62.4533 22.2207C62.4435 22.2453 62.4386 22.2715 62.439 22.2979L62.438 29.5739ZM74.581 22.0939C74.634 22.0939 74.681 22.1139 74.717 22.1479L74.727 22.1579L74.735 22.1669C74.743 22.1769 74.75 22.1869 74.757 22.1989L74.764 22.2139L74.772 22.2339L74.777 22.2559L74.781 22.2859V23.6509C74.7813 23.6712 74.7786 23.6914 74.773 23.7109L74.766 23.7309C74.751 23.7676 74.7254 23.7989 74.6924 23.8208C74.6594 23.8428 74.6206 23.8543 74.581 23.8539H70.901V25.0269H73.993L74.018 25.0289C74.059 25.0336 74.0975 25.0511 74.128 25.0789C74.168 25.1159 74.193 25.1699 74.193 25.2299V26.5839C74.1934 26.6105 74.1885 26.6368 74.1787 26.6614C74.1688 26.686 74.1541 26.7084 74.1355 26.7273C74.1169 26.7462 74.0947 26.7612 74.0703 26.7714C74.0458 26.7817 74.0195 26.7869 73.993 26.7869H70.9V28.0169H74.581C74.691 28.0169 74.781 28.1069 74.781 28.2199V29.5739C74.7813 29.6004 74.7763 29.6266 74.7664 29.6511C74.7564 29.6756 74.7418 29.6979 74.7232 29.7167C74.7046 29.7354 74.6824 29.7504 74.658 29.7605C74.6336 29.7707 74.6075 29.7759 74.581 29.7759H69.147C69.1206 29.7759 69.0944 29.7707 69.07 29.7605C69.0456 29.7504 69.0235 29.7354 69.0049 29.7167C68.9863 29.6979 68.9716 29.6756 68.9617 29.6511C68.9517 29.6266 68.9468 29.6004 68.947 29.5739V22.2969C68.947 22.2519 68.962 22.2099 68.987 22.1769C69.0052 22.1514 69.0291 22.1305 69.057 22.1161C69.0848 22.1016 69.1157 22.094 69.147 22.0939H74.581ZM83.152 22.2969C83.1524 22.2705 83.1476 22.2443 83.1378 22.2197C83.128 22.1952 83.1134 22.1728 83.0949 22.1539C83.0764 22.1351 83.0543 22.12 83.03 22.1097C83.0056 22.0994 82.9795 22.0941 82.953 22.0939H81.4C81.3736 22.0941 81.3474 22.0994 81.3231 22.1097C81.2987 22.12 81.2767 22.1351 81.2582 22.1539C81.2397 22.1728 81.2251 22.1952 81.2153 22.2197C81.2055 22.2443 81.2006 22.2705 81.201 22.2969V25.0269H78.317V22.2969C78.3174 22.2705 78.3126 22.2443 78.3028 22.2197C78.293 22.1952 78.2784 22.1728 78.2599 22.1539C78.2414 22.1351 78.2193 22.12 78.195 22.1097C78.1706 22.0994 78.1445 22.0941 78.118 22.0939H76.565C76.5385 22.0939 76.5122 22.0992 76.4878 22.1095C76.4633 22.1197 76.4411 22.1347 76.4225 22.1536C76.4039 22.1725 76.3893 22.1949 76.3794 22.2195C76.3695 22.2441 76.3646 22.2704 76.365 22.2969V29.5739C76.3648 29.6004 76.3697 29.6266 76.3797 29.6511C76.3896 29.6756 76.4043 29.6979 76.4229 29.7167C76.4415 29.7354 76.4636 29.7504 76.488 29.7605C76.5124 29.7707 76.5386 29.7759 76.565 29.7759H78.117C78.1366 29.7759 78.1561 29.7732 78.175 29.7679C78.1904 29.7629 78.2051 29.7562 78.219 29.7479C78.249 29.7298 78.2737 29.7043 78.2909 29.6738C78.3081 29.6433 78.3171 29.6089 78.317 29.5739V26.7869H81.2V29.5739C81.2 29.6389 81.229 29.6959 81.275 29.7329C81.3103 29.761 81.354 29.7761 81.399 29.7759H82.952C82.998 29.7762 83.0426 29.7603 83.078 29.7309L83.095 29.7159L83.107 29.7019C83.1352 29.6656 83.1507 29.621 83.151 29.5749L83.152 22.2969ZM90.648 22.0939C90.6745 22.0939 90.7008 22.0992 90.7253 22.1095C90.7497 22.1197 90.7719 22.1347 90.7905 22.1536C90.8091 22.1725 90.8238 22.1949 90.8337 22.2195C90.8435 22.2441 90.8484 22.2704 90.848 22.2969V23.6509C90.8486 23.6775 90.8438 23.704 90.834 23.7287C90.8241 23.7534 90.8095 23.776 90.7909 23.795C90.7723 23.814 90.75 23.829 90.7255 23.8393C90.701 23.8496 90.6746 23.8549 90.648 23.8549H86.967V25.0269H90.061C90.0875 25.0271 90.1136 25.0324 90.1379 25.0427C90.1623 25.053 90.1844 25.0681 90.2029 25.0869C90.2214 25.1058 90.236 25.1282 90.2458 25.1527C90.2556 25.1773 90.2604 25.2035 90.26 25.2299V26.5839C90.2604 26.6105 90.2555 26.6368 90.2457 26.6614C90.2358 26.686 90.2211 26.7084 90.2025 26.7273C90.1839 26.7462 90.1617 26.7612 90.1373 26.7714C90.1128 26.7817 90.0865 26.7869 90.06 26.7869H86.967V28.0169H90.648C90.705 28.0169 90.756 28.0409 90.792 28.0799C90.8273 28.118 90.847 28.168 90.847 28.2199V29.5739C90.8476 29.6005 90.8428 29.6268 90.8329 29.6514C90.8231 29.676 90.8084 29.6984 90.7898 29.7173C90.7711 29.7361 90.7489 29.751 90.7243 29.7611C90.6998 29.7712 90.6735 29.7762 90.647 29.7759H85.213C85.1836 29.7759 85.1546 29.7694 85.128 29.7569C85.0937 29.7403 85.0647 29.7143 85.0446 29.6819C85.0244 29.6495 85.0138 29.6121 85.014 29.5739V22.2969C85.0136 22.2704 85.0185 22.2441 85.0284 22.2195C85.0382 22.1949 85.0529 22.1725 85.0715 22.1536C85.0901 22.1347 85.1123 22.1197 85.1368 22.1095C85.1613 22.0992 85.1875 22.0939 85.214 22.0939H90.648ZM97.701 22.6919C97.147 22.2179 96.48 22.0939 95.859 22.0939H92.632C92.522 22.0939 92.432 22.1839 92.432 22.2969V29.5739C92.4318 29.6004 92.4367 29.6266 92.4467 29.6511C92.4566 29.6756 92.4713 29.6979 92.4899 29.7167C92.5085 29.7354 92.5306 29.7504 92.555 29.7605C92.5794 29.7707 92.6056 29.7759 92.632 29.7759H94.183C94.2095 29.7761 94.2358 29.7709 94.2603 29.7608C94.2848 29.7507 94.3071 29.7358 94.3258 29.717C94.3445 29.6982 94.3593 29.6759 94.3693 29.6513C94.3793 29.6268 94.3843 29.6005 94.384 29.5739V27.6229H95.914C96.502 27.6229 97.089 27.5089 97.622 27.0809C98.243 26.5959 98.642 25.8059 98.642 24.8579C98.642 23.9449 98.276 23.1779 97.701 22.6919ZM105.018 25.6699L102.113 28.6819V29.5729C102.113 29.5995 102.109 29.6258 102.099 29.6504C102.089 29.675 102.074 29.6974 102.056 29.7163C102.037 29.7352 102.015 29.7502 101.99 29.7604C101.966 29.7707 101.94 29.7759 101.913 29.7759H100.36C100.334 29.7758 100.307 29.7704 100.283 29.7602C100.259 29.7499 100.237 29.7348 100.218 29.716C100.2 29.6971 100.185 29.6747 100.175 29.6502C100.165 29.6256 100.161 29.5994 100.161 29.5729V22.2969C100.161 22.2704 100.166 22.2441 100.175 22.2195C100.185 22.1949 100.2 22.1725 100.219 22.1536C100.237 22.1347 100.259 22.1197 100.284 22.1095C100.308 22.0992 100.335 22.0939 100.361 22.0939H101.913C101.94 22.0939 101.966 22.0992 101.99 22.1095C102.015 22.1197 102.037 22.1347 102.056 22.1536C102.074 22.1725 102.089 22.1949 102.099 22.2195C102.109 22.2441 102.113 22.2704 102.113 22.2969V26.2459L105.018 23.2459V22.2969C105.018 22.2705 105.022 22.2443 105.032 22.2197C105.042 22.1952 105.057 22.1728 105.075 22.1539C105.094 22.1351 105.116 22.12 105.14 22.1097C105.164 22.0994 105.191 22.0941 105.217 22.0939H106.769C106.881 22.0939 106.971 22.1839 106.971 22.2969L106.97 29.5729C106.97 29.5995 106.966 29.626 106.956 29.6506C106.946 29.6753 106.931 29.6978 106.912 29.7167C106.893 29.7356 106.871 29.7505 106.847 29.7607C106.822 29.7709 106.796 29.7761 106.769 29.7759H105.217C105.191 29.7759 105.164 29.7707 105.14 29.7604C105.116 29.7502 105.093 29.7352 105.075 29.7163C105.056 29.6973 105.042 29.6749 105.032 29.6503C105.022 29.6257 105.017 29.5994 105.018 29.5729V25.6699ZM114.099 22.6919C113.545 22.2179 112.879 22.0939 112.259 22.0939H109.031C108.999 22.0939 108.967 22.1019 108.938 22.117C108.91 22.1322 108.885 22.1541 108.867 22.1809C108.843 22.2149 108.831 22.2555 108.831 22.2969V29.5739C108.831 29.6109 108.841 29.6459 108.858 29.6759L108.866 29.6879L108.873 29.6979L108.885 29.7129C108.904 29.733 108.926 29.7489 108.951 29.7597C108.977 29.7706 109.004 29.7761 109.031 29.7759H110.582C110.609 29.7761 110.635 29.7709 110.659 29.7608C110.684 29.7507 110.706 29.7358 110.725 29.717C110.744 29.6982 110.758 29.6759 110.768 29.6513C110.778 29.6268 110.783 29.6005 110.783 29.5739V27.6229H112.313C112.901 27.6229 113.489 27.5089 114.021 27.0809C114.643 26.5959 115.042 25.8059 115.042 24.8579C115.042 23.9449 114.676 23.1779 114.099 22.6919ZM117.281 28.0729C117.613 28.0729 117.868 28.0509 118.09 27.9599C118.18 27.9272 118.265 27.8828 118.343 27.8279L118.383 27.7979L118.427 27.7639C118.471 27.7279 118.513 27.6889 118.556 27.6449L115.895 22.3769C115.839 22.2629 115.85 22.0939 116.05 22.0939H117.792C117.969 22.0939 118.068 22.1959 118.124 22.3199L119.555 25.6139L120.786 22.3199C120.841 22.1849 120.941 22.0939 121.118 22.0939H122.77C122.97 22.0939 122.982 22.2639 122.926 22.3759L120.774 27.4529C120.497 28.1069 120.164 28.5809 119.776 28.9409C119.111 29.5629 118.3 29.7769 117.502 29.7769H116.815C116.789 29.7768 116.762 29.7714 116.738 29.7612C116.714 29.7509 116.692 29.7358 116.673 29.717C116.655 29.6981 116.64 29.6757 116.63 29.6512C116.62 29.6266 116.616 29.6004 116.616 29.5739V28.2769C116.615 28.2421 116.624 28.2077 116.641 28.1772C116.658 28.1467 116.682 28.1211 116.712 28.1029L116.726 28.0939L116.741 28.0879L116.766 28.0789L116.784 28.0749L116.805 28.0729H117.281ZM127.46 26.7879C127.848 28.6829 129.545 29.8779 131.475 29.8779C133.659 29.8779 135.557 28.3549 135.557 25.9409C135.557 23.5379 133.66 21.9809 131.475 21.9809C129.568 21.9809 127.893 23.1549 127.471 25.0269H126.073V22.2969C126.073 22.2523 126.059 22.2087 126.032 22.1729C126.014 22.1481 125.99 22.1279 125.963 22.114C125.936 22.1001 125.906 22.0929 125.875 22.0929H124.322C124.296 22.0929 124.269 22.0983 124.245 22.1086C124.221 22.1189 124.198 22.134 124.18 22.1529C124.142 22.1919 124.122 22.2439 124.122 22.2979V29.5739C124.122 29.6005 124.127 29.6268 124.136 29.6514C124.146 29.676 124.161 29.6984 124.18 29.7173C124.198 29.7362 124.22 29.7512 124.245 29.7614C124.269 29.7717 124.296 29.7769 124.322 29.7769H125.874C125.9 29.7768 125.927 29.7714 125.951 29.7612C125.975 29.7509 125.997 29.7358 126.016 29.717C126.034 29.6981 126.049 29.6757 126.059 29.6512C126.069 29.6266 126.073 29.6004 126.073 29.5739V26.7879H127.46ZM137.117 29.5739V22.2969C137.117 22.2704 137.121 22.2441 137.131 22.2195C137.141 22.1949 137.156 22.1725 137.175 22.1536C137.193 22.1347 137.215 22.1197 137.24 22.1095C137.264 22.0992 137.291 22.0939 137.317 22.0939H138.869C138.896 22.0939 138.922 22.0992 138.946 22.1095C138.971 22.1197 138.993 22.1347 139.012 22.1536C139.03 22.1725 139.045 22.1949 139.055 22.2195C139.065 22.2441 139.069 22.2704 139.069 22.2969V28.0169H141.442L141.443 22.2969C141.443 22.2705 141.447 22.2443 141.457 22.2197C141.467 22.1952 141.482 22.1728 141.5 22.1539C141.519 22.1351 141.541 22.12 141.565 22.1097C141.589 22.0994 141.616 22.0941 141.642 22.0939H143.194C143.221 22.0938 143.247 22.099 143.271 22.1092C143.296 22.1194 143.318 22.1344 143.337 22.1533C143.355 22.1722 143.37 22.1947 143.38 22.2193C143.39 22.244 143.395 22.2704 143.394 22.2969L143.393 28.0169H145.768V22.2969C145.768 22.2399 145.791 22.1869 145.829 22.1499C145.866 22.1138 145.916 22.0937 145.968 22.0939H147.519C147.546 22.0939 147.572 22.0992 147.596 22.1095C147.621 22.1197 147.643 22.1347 147.662 22.1536C147.68 22.1725 147.695 22.1949 147.705 22.2195C147.715 22.2441 147.719 22.2704 147.719 22.2969V28.0169H149.44L149.461 28.0189L149.492 28.0269L149.508 28.0339L149.524 28.0419L149.534 28.0479C149.56 28.0643 149.581 28.0866 149.597 28.1129C149.609 28.1329 149.618 28.1549 149.622 28.1789C149.625 28.1921 149.626 28.2055 149.626 28.2189V31.3109C149.626 31.3372 149.622 31.3634 149.612 31.3878C149.602 31.4122 149.588 31.4345 149.569 31.4532C149.551 31.472 149.529 31.487 149.505 31.4972C149.48 31.5075 149.454 31.5128 149.428 31.5129H147.875C147.849 31.5129 147.822 31.5077 147.798 31.4975C147.774 31.4874 147.751 31.4724 147.733 31.4537C147.714 31.4349 147.7 31.4126 147.69 31.3881C147.68 31.3636 147.675 31.3374 147.675 31.3109V29.7769H137.317C137.291 29.7769 137.264 29.7717 137.24 29.7614C137.215 29.7512 137.193 29.7362 137.175 29.7173C137.156 29.6984 137.141 29.676 137.131 29.6514C137.121 29.6268 137.117 29.6005 137.117 29.5739ZM151.987 29.7769C152.165 29.7769 152.274 29.7089 152.32 29.5509L152.663 28.3889H154.982L155.313 29.5509C155.358 29.7089 155.469 29.7769 155.647 29.7769H157.222C157.354 29.7769 157.399 29.7089 157.399 29.6189C157.399 29.5849 157.392 29.5579 157.385 29.5269L157.377 29.4949L154.993 22.2639C154.978 22.2035 154.942 22.1501 154.892 22.1129C154.829 22.0744 154.756 22.0563 154.682 22.0609H153.041C152.875 22.0609 152.774 22.1169 152.73 22.2639L150.3 29.4939L150.293 29.5229C150.286 29.5559 150.279 29.5839 150.279 29.6189C150.279 29.6629 150.289 29.7009 150.315 29.7289C150.321 29.7346 150.327 29.7399 150.333 29.7449L150.351 29.7549L150.363 29.7609L150.374 29.7659C150.401 29.7736 150.429 29.777 150.457 29.7759L151.987 29.7769ZM158.307 24.6669C158.307 23.8539 158.617 23.0979 159.183 22.6469C159.682 22.2529 160.381 22.0939 161.124 22.0939H164.484C164.523 22.0939 164.56 22.1051 164.593 22.1262C164.625 22.1474 164.651 22.1775 164.666 22.2129L164.673 22.2309L164.679 22.2529C164.682 22.2674 164.684 22.2821 164.684 22.2969V29.5739C164.684 29.6004 164.679 29.6266 164.669 29.6511C164.659 29.6756 164.645 29.6979 164.626 29.7167C164.608 29.7354 164.585 29.7504 164.561 29.7605C164.537 29.7707 164.51 29.7759 164.484 29.7759H162.931C162.905 29.7759 162.878 29.7707 162.854 29.7605C162.83 29.7504 162.807 29.7354 162.789 29.7167C162.77 29.6979 162.756 29.6756 162.746 29.6511C162.736 29.6266 162.731 29.6004 162.731 29.5739V27.2719H161.544L160.358 29.5739C160.341 29.6082 160.319 29.6401 160.294 29.6689L160.277 29.6859L160.267 29.6959C160.254 29.7073 160.241 29.7173 160.226 29.7259L160.204 29.7379L160.188 29.7449L160.175 29.7499C160.147 29.7599 160.118 29.7666 160.088 29.7699C160.053 29.7743 160.017 29.7763 159.982 29.7759H158.273C158.203 29.7759 158.15 29.7529 158.121 29.7109C158.109 29.6934 158.102 29.6737 158.098 29.6529C158.096 29.6417 158.095 29.6303 158.095 29.6189C158.1 29.5468 158.123 29.4771 158.162 29.4159L159.593 26.8889C159.491 26.8306 159.392 26.7662 159.298 26.6959C159.243 26.6543 159.189 26.6096 159.139 26.5619C158.872 26.3247 158.659 26.0325 158.516 25.7055C158.372 25.3784 158.301 25.0241 158.307 24.6669ZM69.612 37.6829C69.612 40.0629 71.509 41.6199 73.704 41.6199C75.889 41.6199 77.785 40.0969 77.786 37.6829C77.786 35.2799 75.889 33.7229 73.704 33.7229C71.509 33.7229 69.612 35.2799 69.612 37.6829ZM87.277 41.3049C87.2774 41.3315 87.2725 41.3578 87.2627 41.3824C87.2528 41.407 87.2381 41.4294 87.2195 41.4483C87.2009 41.4672 87.1787 41.4822 87.1543 41.4924C87.1298 41.5027 87.1035 41.5079 87.077 41.5079H85.59L85.566 41.5059L85.546 41.5019C85.53 41.4987 85.5146 41.4933 85.5 41.4859L85.483 41.4769L85.468 41.4659C85.4436 41.4468 85.4239 41.4224 85.4103 41.3945C85.3968 41.3666 85.3899 41.336 85.39 41.3049L85.391 37.2769L84.226 39.4769C84.1957 39.538 84.1519 39.5913 84.098 39.6329C84.0431 39.6675 83.9788 39.684 83.914 39.6799H82.772C82.607 39.6799 82.54 39.6119 82.462 39.4769L81.232 37.2769V41.3049C81.2314 41.3456 81.2189 41.3853 81.196 41.4189L81.188 41.4309L81.178 41.4439L81.163 41.4579C81.1558 41.4644 81.1481 41.4704 81.14 41.4759L81.122 41.4859L81.098 41.4959C81.0767 41.5031 81.0545 41.5071 81.032 41.5079H79.545C79.4994 41.5079 79.4552 41.492 79.42 41.4629C79.3968 41.4437 79.3781 41.4196 79.3653 41.3923C79.3525 41.3649 79.3459 41.3351 79.346 41.3049V34.0279C79.346 33.9901 79.3564 33.9529 79.3762 33.9206C79.3959 33.8883 79.4243 33.8621 79.458 33.8449C79.4854 33.8316 79.5155 33.8247 79.546 33.8249H81.109C81.265 33.8249 81.365 33.8479 81.465 34.0279L83.305 37.3909L85.146 34.0279C85.246 33.8479 85.346 33.8249 85.501 33.8249H87.077C87.1035 33.8251 87.1296 33.8304 87.154 33.8407C87.1783 33.851 87.2004 33.8661 87.2189 33.8849C87.2374 33.9038 87.252 33.9262 87.2618 33.9507C87.2716 33.9753 87.2764 34.0015 87.276 34.0279L87.277 41.3049ZM93.804 41.3619L93.809 41.3759L93.814 41.3869C93.829 41.4228 93.8543 41.4534 93.8867 41.4748C93.9191 41.4961 93.9572 41.5073 93.996 41.5069H95.548C95.608 41.5069 95.662 41.4809 95.698 41.4379C95.7299 41.4006 95.7473 41.353 95.747 41.3039V34.0279C95.7474 33.9949 95.7398 33.9623 95.7249 33.9328C95.7099 33.9034 95.688 33.878 95.661 33.8589C95.6277 33.8364 95.5883 33.8245 95.548 33.8249H89.338C89.3115 33.8248 89.2852 33.83 89.2608 33.8402C89.2363 33.8504 89.2141 33.8654 89.1956 33.8843C89.177 33.9033 89.1624 33.9257 89.1527 33.9504C89.143 33.9751 89.1384 34.0014 89.139 34.0279V41.3039C89.1386 41.3305 89.1435 41.3568 89.1534 41.3814C89.1632 41.406 89.1779 41.4284 89.1965 41.4473C89.2151 41.4662 89.2373 41.4812 89.2618 41.4914C89.2863 41.5017 89.3125 41.5069 89.339 41.5069H90.89C90.9325 41.5071 90.974 41.4934 91.008 41.4679C91.0334 41.4488 91.0539 41.424 91.0679 41.3955C91.082 41.3671 91.0892 41.3357 91.089 41.3039V35.5849H93.797V41.3219C93.798 41.3355 93.8004 41.3489 93.804 41.3619ZM98.974 41.2819C98.9606 41.3346 98.9337 41.3828 98.896 41.4219C98.837 41.4809 98.753 41.5069 98.642 41.5069H97.111C96.977 41.5069 96.933 41.4399 96.933 41.3489L96.935 41.3219L96.937 41.3029C96.9403 41.2851 96.9443 41.2674 96.949 41.2499L96.955 41.2249L99.385 33.9949C99.428 33.8479 99.529 33.7909 99.695 33.7909H101.337C101.503 33.7909 101.602 33.8479 101.648 33.9939L104.031 41.2249C104.042 41.2709 104.053 41.3049 104.053 41.3489C104.053 41.4389 104.009 41.5069 103.876 41.5069H102.301C102.239 41.5091 102.177 41.4979 102.12 41.4739C102.082 41.4555 102.048 41.4287 102.022 41.3954C101.996 41.3622 101.977 41.3234 101.968 41.2819L101.636 40.1189H99.317L98.974 41.2819ZM112.026 34.0279C112.026 34.0014 112.022 33.9751 112.012 33.9505C112.002 33.9259 111.987 33.9035 111.969 33.8846C111.95 33.8657 111.928 33.8507 111.903 33.8405C111.879 33.8302 111.853 33.8249 111.826 33.8249H110.273C110.247 33.8251 110.22 33.8304 110.196 33.8407C110.172 33.851 110.15 33.8661 110.131 33.8849C110.113 33.9038 110.098 33.9262 110.088 33.9507C110.078 33.9753 110.074 34.0015 110.074 34.0279V36.7579H107.19V34.0279C107.19 34.0015 107.186 33.9753 107.176 33.9507C107.166 33.9262 107.151 33.9038 107.133 33.8849C107.114 33.8661 107.092 33.851 107.068 33.8407C107.044 33.8304 107.017 33.8251 106.991 33.8249H105.438C105.412 33.8251 105.385 33.8304 105.361 33.8407C105.337 33.851 105.315 33.8661 105.296 33.8849C105.278 33.9038 105.263 33.9262 105.253 33.9507C105.243 33.9753 105.239 34.0015 105.239 34.0279V41.3049C105.239 41.3312 105.244 41.3573 105.253 41.3816C105.263 41.406 105.278 41.4282 105.296 41.447C105.315 41.4657 105.336 41.4807 105.361 41.491C105.385 41.5012 105.411 41.5067 105.437 41.5069H106.99C107.016 41.5069 107.043 41.5017 107.067 41.4915C107.091 41.4814 107.114 41.4664 107.132 41.4477C107.151 41.4289 107.165 41.4066 107.175 41.3821C107.185 41.3576 107.19 41.3314 107.19 41.3049V38.5179H110.073V41.3049C110.073 41.3314 110.078 41.3576 110.088 41.3821C110.098 41.4066 110.112 41.4289 110.131 41.4477C110.149 41.4664 110.172 41.4814 110.196 41.4915C110.22 41.5017 110.247 41.5069 110.273 41.5069H111.826C111.852 41.5068 111.878 41.5015 111.903 41.4912C111.927 41.481 111.949 41.4661 111.968 41.4473C111.986 41.4285 112.001 41.4063 112.01 41.3819C112.02 41.3574 112.025 41.3313 112.025 41.3049L112.026 34.0279ZM118.745 37.3999L115.839 40.4129V41.3029C115.84 41.3295 115.835 41.356 115.825 41.3807C115.815 41.4054 115.8 41.428 115.782 41.447C115.763 41.466 115.741 41.481 115.716 41.4913C115.692 41.5016 115.666 41.5069 115.639 41.5069H114.086C114.06 41.5068 114.034 41.5014 114.009 41.4911C113.985 41.4808 113.963 41.4658 113.945 41.4469C113.926 41.428 113.912 41.4056 113.902 41.3811C113.892 41.3566 113.887 41.3303 113.888 41.3039V34.0279C113.888 34.0015 113.892 33.9753 113.902 33.9507C113.912 33.9262 113.927 33.9038 113.945 33.8849C113.964 33.8661 113.986 33.851 114.01 33.8407C114.034 33.8304 114.061 33.8251 114.087 33.8249H115.639C115.673 33.8247 115.706 33.8331 115.736 33.8493C115.765 33.8656 115.79 33.8893 115.808 33.9179L115.816 33.9319L115.823 33.9459C115.833 33.9722 115.838 33.9999 115.839 34.0279V37.9759L118.745 34.9759V34.0279C118.745 34.0014 118.75 33.9751 118.759 33.9505C118.769 33.9259 118.784 33.9035 118.803 33.8846C118.821 33.8657 118.843 33.8507 118.868 33.8405C118.892 33.8302 118.919 33.8249 118.945 33.8249H120.497C120.55 33.8255 120.601 33.8471 120.639 33.8852C120.676 33.9232 120.697 33.9745 120.697 34.0279V41.3039C120.697 41.3305 120.693 41.3568 120.683 41.3814C120.673 41.406 120.658 41.4284 120.64 41.4473C120.621 41.4662 120.599 41.4812 120.574 41.4914C120.55 41.5017 120.524 41.5069 120.497 41.5069H118.944C118.918 41.5069 118.892 41.5015 118.867 41.4912C118.843 41.4809 118.821 41.4659 118.803 41.4469C118.766 41.4087 118.745 41.3574 118.745 41.3039V37.3999ZM123.157 34.3769C122.591 34.8289 122.281 35.5849 122.281 36.3969C122.281 37.0739 122.514 37.7509 123.112 38.2919C123.257 38.4279 123.412 38.5289 123.568 38.6199L122.136 41.1469C122.097 41.208 122.074 41.2777 122.069 41.3499C122.069 41.4509 122.136 41.5069 122.246 41.5069H123.956C124.132 41.5069 124.243 41.4729 124.333 41.3049L125.519 39.0029H126.705V41.3049C126.705 41.3314 126.71 41.3576 126.72 41.3821C126.73 41.4066 126.744 41.4289 126.763 41.4477C126.781 41.4664 126.804 41.4814 126.828 41.4915C126.852 41.5017 126.879 41.5069 126.905 41.5069H128.458C128.486 41.5071 128.514 41.5013 128.539 41.49C128.565 41.4786 128.587 41.4619 128.606 41.4409L128.616 41.4279L128.631 41.4059C128.636 41.3971 128.641 41.3877 128.644 41.3779C128.649 41.3651 128.653 41.3517 128.655 41.3379L128.657 41.3259L128.658 41.3049V34.0279C128.658 34.0014 128.654 33.9751 128.644 33.9505C128.634 33.9259 128.619 33.9035 128.601 33.8846C128.582 33.8657 128.56 33.8507 128.535 33.8405C128.511 33.8302 128.485 33.8249 128.458 33.8249H125.097C124.354 33.8249 123.656 33.9829 123.157 34.3769ZM110.686 10.3619H112.23C112.342 10.3619 112.433 10.4549 112.433 10.5689V13.1749C112.433 13.2069 112.445 13.2329 112.463 13.2529C112.47 13.2599 112.478 13.266 112.486 13.2709L112.503 13.2799C112.544 13.2959 112.593 13.2889 112.627 13.2479L114.974 10.4349C114.993 10.4121 115.016 10.3937 115.043 10.381C115.069 10.3684 115.099 10.3619 115.128 10.3619H116.979C117.154 10.3619 117.22 10.5199 117.093 10.6689L114.411 13.7889L114.687 13.7859C114.721 13.7862 114.755 13.795 114.785 13.8116C114.815 13.8282 114.841 13.852 114.859 13.8809L117.315 17.7279C117.403 17.8669 117.446 18.0479 117.224 18.0479H115.214C115.179 18.0479 115.144 18.0386 115.114 18.0211C115.083 18.0035 115.058 17.9783 115.04 17.9479L113.307 15.2569C113.3 15.2445 113.289 15.2339 113.277 15.2262C113.265 15.2184 113.251 15.2137 113.236 15.2123C113.222 15.211 113.207 15.213 113.193 15.2183C113.18 15.2237 113.168 15.2321 113.158 15.2429L112.485 16.0199C112.472 16.035 112.461 16.0518 112.453 16.0699C112.44 16.0973 112.433 16.1274 112.433 16.1579V17.8409C112.433 17.8679 112.428 17.8946 112.418 17.9195C112.408 17.9445 112.393 17.9673 112.374 17.9865C112.356 18.0057 112.333 18.021 112.308 18.0316C112.284 18.0421 112.257 18.0477 112.23 18.0479H110.686C110.654 18.0479 110.623 18.0404 110.595 18.0262C110.567 18.0119 110.543 17.9913 110.524 17.9659L110.515 17.9519L110.506 17.9359C110.49 17.9067 110.483 17.874 110.483 17.8409V10.5699C110.483 10.4559 110.574 10.3619 110.686 10.3619ZM64.184 33.8159H62.641C62.6141 33.8162 62.5875 33.8218 62.5627 33.8323C62.538 33.8429 62.5155 33.8582 62.4967 33.8774C62.4778 33.8966 62.4629 33.9194 62.4529 33.9443C62.4428 33.9693 62.4378 33.996 62.438 34.0229V41.2949C62.438 41.4089 62.528 41.5019 62.641 41.5019H64.184C64.2362 41.5021 64.2864 41.4821 64.324 41.4459C64.344 41.4264 64.3598 41.403 64.3706 41.3773C64.3815 41.3515 64.387 41.3239 64.387 41.2959V39.6119C64.3869 39.561 64.4058 39.5117 64.44 39.4739L65.112 38.6969C65.1206 38.6873 65.1311 38.6796 65.1428 38.6742C65.1545 38.6689 65.1672 38.666 65.1801 38.6658C65.193 38.6657 65.2057 38.6681 65.2176 38.6732C65.2295 38.6782 65.2402 38.6856 65.249 38.6949L65.257 38.7039L65.262 38.7109L66.995 41.4009C67.0125 41.4317 67.0378 41.4572 67.0684 41.4749C67.099 41.4927 67.1337 41.502 67.169 41.5019H69.179C69.4 41.5019 69.358 41.3199 69.269 41.1819L66.813 37.3349C66.7946 37.306 66.7692 37.2821 66.7391 37.2655C66.7091 37.2489 66.6754 37.2401 66.641 37.2399L66.365 37.2419L69.048 34.1239C69.175 33.9739 69.108 33.8159 68.934 33.8159H67.082C67.0525 33.8163 67.0234 33.8231 66.9968 33.8359C66.9702 33.8486 66.9467 33.8671 66.928 33.8899L64.582 36.7019C64.5656 36.7219 64.5426 36.7354 64.5171 36.74C64.4917 36.7446 64.4654 36.74 64.443 36.7269C64.4281 36.7185 64.4154 36.7067 64.4058 36.6925C64.3963 36.6782 64.3902 36.662 64.388 36.6449V34.0229L64.385 33.9929L64.383 33.9789C64.3805 33.9687 64.3771 33.9587 64.373 33.9489L64.363 33.9259C64.3461 33.8928 64.3203 33.865 64.2885 33.8456C64.2568 33.8262 64.2212 33.8159 64.184 33.8159ZM82.442 15.0459C82.2107 14.9657 81.9668 14.9278 81.722 14.9339H81.156V16.4339H81.877C82.132 16.4339 82.376 16.3999 82.553 16.2989C82.743 16.1859 82.864 15.9939 82.864 15.6789C82.864 15.3849 82.742 15.1709 82.442 15.0469V15.0459ZM98.288 12.1019C98.52 12.1019 98.754 12.1469 98.941 12.2709C99.174 12.4179 99.331 12.6879 99.331 13.1279C99.331 13.5799 99.174 13.8509 98.931 13.9969C98.754 14.1099 98.52 14.1539 98.287 14.1539H97.057V12.1019H98.288ZM121.453 12.7329L120.753 15.0689H122.129L121.453 12.7329ZM128.217 12.2369C128.394 12.1019 128.637 12.0459 128.871 12.0459H130.345V13.8729H128.892C128.66 13.8729 128.427 13.8169 128.25 13.7039C128.039 13.5569 127.906 13.3089 127.906 12.9589C127.906 12.6209 128.016 12.3839 128.217 12.2369ZM96.269 24.0009C96.081 23.8769 95.847 23.8309 95.615 23.8309H94.385V25.8839H95.615C95.848 25.8839 96.081 25.8399 96.258 25.7269C96.502 25.5809 96.657 25.3099 96.657 24.8579C96.657 24.4179 96.502 24.1479 96.269 24.0009ZM112.015 23.8309C112.248 23.8309 112.48 23.8769 112.668 24.0009C112.902 24.1479 113.057 24.4179 113.057 24.8579C113.057 25.3099 112.902 25.5809 112.658 25.7269C112.48 25.8399 112.248 25.8839 112.015 25.8839H110.784V23.8309H112.015ZM131.475 23.8429C130.299 23.8429 129.456 24.7229 129.456 25.9409C129.456 27.1599 130.299 28.0279 131.475 28.0279C132.651 28.0279 133.482 27.1599 133.483 25.9409C133.483 24.7229 132.651 23.8429 131.475 23.8429ZM153.139 26.7989L153.839 24.4629L154.515 26.7989H153.139ZM161.257 23.7749C161.024 23.7749 160.78 23.8309 160.603 23.9669C160.403 24.1139 160.292 24.3509 160.292 24.6889C160.292 25.0389 160.425 25.2869 160.636 25.4339C160.814 25.5459 161.046 25.6019 161.279 25.6019H162.732V23.7749H161.257ZM71.686 37.6829C71.686 36.4639 72.529 35.5839 73.704 35.5839C74.88 35.5839 75.712 36.4639 75.712 37.6839C75.712 38.9009 74.879 39.7699 73.704 39.7699C72.529 39.7699 71.686 38.9009 71.686 37.6829ZM100.493 36.1929L99.794 38.5289H101.169L100.493 36.1929ZM124.577 35.6979C124.754 35.5619 124.998 35.5059 125.232 35.5059H126.706V37.3329H125.253C125.02 37.3329 124.787 37.2769 124.611 37.1649C124.4 37.0179 124.266 36.7699 124.266 36.4199C124.266 36.0809 124.377 35.8449 124.577 35.6979Z" fill="white"/>
</g>
<defs>
<clipPath id="clip0_5_6">
<rect width="165" height="52" fill="white"/>
</clipPath>
</defs>
</svg>
