<svg width="52" height="52" viewBox="0 0 52 52" fill="none" xmlns="http://www.w3.org/2000/svg">
<g clip-path="url(#clip0_5_6)">
<path fill-rule="evenodd" clip-rule="evenodd" d="M2.776 35.346C10.664 48.363 26.22 46.864 33.296 39.119C33.336 39.076 33.336 38.813 33.182 38.851C25.862 40.663 19.233 38.648 14.752 34.444C5.106 25.391 6.13 12.3 13.613 4.40099C14.936 3.00299 16.683 1.91299 18.266 0.927988C18.476 0.797988 18.325 0.474988 18.089 0.542988C4.708 4.45599 -5.013 22.494 2.776 35.346Z" fill="#0078A8"/>
<path fill-rule="evenodd" clip-rule="evenodd" d="M29.413 0.00803788C14.386 0.449038 7.88501 14.9 10.94 25.008C10.956 25.063 11.181 25.195 11.225 25.04C13.343 17.687 18.372 12.855 24.192 11.01C36.724 7.03604 47.358 14.487 50.342 25.026C50.869 26.892 50.926 28.973 50.972 30.861C50.978 31.111 51.329 31.14 51.387 30.898C54.747 17.155 44.25 -0.426962 29.413 0.00803788Z" fill="#EF4056"/>
<path fill-rule="evenodd" clip-rule="evenodd" d="M46.173 41.184C53.311 27.726 44.258 14.772 34.125 12.411C34.069 12.398 33.845 12.531 33.955 12.647C39.156 18.187 40.755 25.035 39.417 31.084C36.533 44.111 24.874 49.752 14.408 47.111C12.556 46.644 10.756 45.651 9.125 44.749C8.91 44.629 8.71 44.923 8.885 45.096C18.907 54.926 39.125 54.471 46.173 41.184Z" fill="#FFD530"/>
</g>
<defs>
<clipPath id="clip0_5_6">
<rect width="52" height="52" fill="white"/>
</clipPath>
</defs>
</svg>
