<svg width="30" height="30" viewBox="0 0 30 30" fill="none" xmlns="http://www.w3.org/2000/svg">
<path d="M24 4H6.5C5.83696 4 5.20107 4.26339 4.73223 4.73223C4.26339 5.20107 4 5.83696 4 6.5V24C4 24.663 4.26339 25.2989 4.73223 25.7678C5.20107 26.2366 5.83696 26.5 6.5 26.5H24C24.663 26.5 25.2989 26.2366 25.7678 25.7678C26.2366 25.2989 26.5 24.663 26.5 24V6.5C26.5 5.83696 26.2366 5.20107 25.7678 4.73223C25.2989 4.26339 24.663 4 24 4ZM24 24H6.5V6.5H24V24ZM11.5 21.5H9V15.25H11.5V21.5ZM16.5 21.5H14V9H16.5V21.5ZM21.5 21.5H19V12.75H21.5V21.5Z" fill="#9CBBC7"/>
</svg>
