<svg width="26" height="26" viewBox="0 0 26 26" fill="none" xmlns="http://www.w3.org/2000/svg">
<g clip-path="url(#clip0_215_118)">
<path d="M3.80899 22.1911C2.56735 20.9919 1.57699 19.5574 0.895669 17.9713C0.214352 16.3853 -0.144269 14.6794 -0.159269 12.9533C-0.174268 11.2272 0.154654 9.51533 0.808305 7.91768C1.46196 6.32002 2.42725 4.86855 3.64785 3.64794C4.86846 2.42734 6.31993 1.46205 7.91758 0.808397C9.51524 0.154745 11.2271 -0.174177 12.9532 -0.159177C14.6793 -0.144178 16.3852 0.214443 17.9712 0.89576C19.5573 1.57708 20.9918 2.56745 22.191 3.80908C24.559 6.26091 25.8694 9.54474 25.8397 12.9533C25.8101 16.3619 24.4429 19.6224 22.0326 22.0327C19.6223 24.443 16.3618 25.8102 12.9532 25.8398C9.54464 25.8695 6.26082 24.5591 3.80899 22.1911ZM20.358 20.3581C22.3094 18.4066 23.4058 15.7599 23.4058 13.0001C23.4058 10.2403 22.3094 7.59354 20.358 5.64208C18.4065 3.69062 15.7598 2.5943 13 2.5943C10.2402 2.5943 7.59345 3.69062 5.64199 5.64208C3.69052 7.59354 2.5942 10.2403 2.5942 13.0001C2.5942 15.7599 3.69052 18.4066 5.64199 20.3581C7.59345 22.3095 10.2402 23.4059 13 23.4059C15.7598 23.4059 18.4065 22.3095 20.358 20.3581ZM11.7 6.50008H14.3V14.3001H11.7V6.50008ZM11.7 16.9001H14.3V19.5001H11.7V16.9001Z" fill="white"/>
</g>
<defs>
<clipPath id="clip0_215_118">
<rect width="26" height="26" fill="white"/>
</clipPath>
</defs>
</svg>
