<svg width="28" height="28" viewBox="0 0 28 28" fill="none" xmlns="http://www.w3.org/2000/svg">
<path d="M17.5 0C19.425 0 21 1.575 21 3.5C21 5.075 19.95 6.475 18.375 6.825V7C19.075 7 19.6 7.35 20.125 7.875L22.4 10.15C22.575 10.325 22.925 10.5 23.275 10.5H26.25V0H17.5Z" fill="#9CBBC7"/>
<path d="M20.65 25.375L14 17.5V21.875C14 23.275 12.775 24.5 11.375 24.5H5.25001C4.20001 24.5 3.50001 23.8 3.50001 22.75C3.50001 21.7 4.20001 21 5.25001 21H9.62501C10.15 21 10.5 20.65 10.5 20.125V16.625C10.5 15.4 10.675 14.35 11.2 13.125L12.425 10.5H11.025C10.15 10.5 9.45001 10.85 8.92501 11.55L8.05001 12.775C7.70001 13.475 6.82501 13.65 5.95001 13.3C5.25001 12.775 4.90001 11.725 5.60001 11.025L6.65001 9.625C7.87501 7.875 9.97501 7 12.075 7H15.575L15.75 6.475C14.7 5.95 14 4.725 14 3.5C14 1.575 15.575 0 17.5 0H5.25001V8.575L4.20001 9.975C3.67501 10.675 3.32501 11.55 3.50001 12.6C3.67501 13.475 4.20001 14.35 5.07501 14.875V19.25C3.15001 19.25 1.57501 20.825 1.57501 22.75C1.57501 24.675 3.15001 26.25 5.07501 26.25V28H25.375C23.45 28 21.7 26.95 20.65 25.375Z" fill="#9CBBC7"/>
<path d="M19.95 12.775L18.725 11.375L17.675 14C17.325 14.875 17.15 15.575 17.675 16.275L26.25 26.95V14H22.575C21.525 14 20.65 13.65 19.95 12.775Z" fill="#9CBBC7"/>
</svg>
