<svg width="23" height="23" viewBox="0 0 23 23" fill="none" xmlns="http://www.w3.org/2000/svg">
<path d="M17.2502 17.7292C18.0456 17.7292 18.6877 17.0871 18.6877 16.2917C18.6877 15.4963 18.0456 14.8542 17.2502 14.8542C16.4547 14.8542 15.8127 15.4963 15.8127 16.2917C15.8127 17.0871 16.4547 17.7292 17.2502 17.7292ZM18.6877 9.10421H16.2918V11.5H20.566L18.6877 9.10421ZM5.75016 17.7292C6.54558 17.7292 7.18766 17.0871 7.18766 16.2917C7.18766 15.4963 6.54558 14.8542 5.75016 14.8542C4.95475 14.8542 4.31266 15.4963 4.31266 16.2917C4.31266 17.0871 4.95475 17.7292 5.75016 17.7292ZM19.1668 7.66671L22.0418 11.5V16.2917H20.1252C20.1252 17.8825 18.841 19.1667 17.2502 19.1667C15.6593 19.1667 14.3752 17.8825 14.3752 16.2917H8.62516C8.62516 17.8825 7.341 19.1667 5.75016 19.1667C4.15933 19.1667 2.87516 17.8825 2.87516 16.2917H0.958496V5.75004C0.958496 4.68629 1.81141 3.83337 2.87516 3.83337H16.2918V7.66671H19.1668ZM2.87516 5.75004V14.375H3.6035C4.13058 13.7905 4.89725 13.4167 5.75016 13.4167C6.60308 13.4167 7.36975 13.7905 7.89683 14.375H14.3752V5.75004H2.87516Z" fill="#B2CCD7"/>
</svg>
