<svg width="13" height="13" viewBox="0 0 13 13" fill="none" xmlns="http://www.w3.org/2000/svg">
<path d="M11.982 4.90915L7.29746 0.487076L7.28809 0.478287C7.0728 0.281267 6.79154 0.171997 6.49971 0.171997C6.20787 0.171997 5.92662 0.281267 5.71133 0.478287L5.70137 0.487076L1.01797 4.90915C0.899199 5.01903 0.804385 5.15225 0.739456 5.30045C0.674527 5.44866 0.640882 5.60867 0.640625 5.77048V11.1875C0.640625 11.4983 0.76409 11.7963 0.983859 12.0161C1.20363 12.2359 1.5017 12.3593 1.8125 12.3593H4.625C4.9358 12.3593 5.23387 12.2359 5.45364 12.0161C5.67341 11.7963 5.79688 11.4983 5.79688 11.1875V8.60934H7.20312V11.1875C7.20312 11.4983 7.32659 11.7963 7.54636 12.0161C7.76613 12.2359 8.0642 12.3593 8.375 12.3593H11.1875C11.4983 12.3593 11.7964 12.2359 12.0161 12.0161C12.2359 11.7963 12.3594 11.4983 12.3594 11.1875V5.77048C12.3591 5.60867 12.3255 5.44866 12.2605 5.30045C12.1956 5.15225 12.1008 5.01903 11.982 4.90915ZM10.9531 10.9531H8.60938V8.37497C8.60938 8.22107 8.57906 8.06869 8.52017 7.92651C8.46128 7.78433 8.37496 7.65515 8.26614 7.54633C8.15732 7.43751 8.02814 7.35119 7.88596 7.2923C7.74378 7.2334 7.59139 7.20309 7.4375 7.20309H5.5625C5.2517 7.20309 4.95363 7.32656 4.73386 7.54633C4.51409 7.7661 4.39062 8.06417 4.39062 8.37497V10.9531H2.04688V5.87184L6.5 1.66774L10.9531 5.87184V10.9531Z" fill="#4F4F4F"/>
</svg>
